<svg width="136" height="47" viewBox="0 0 136 47" fill="none" xmlns="http://www.w3.org/2000/svg">
<path d="M66.1966 7.33841C65.4275 4.45432 63.1523 2.17909 60.2575 1.39932C55.0234 5.09349e-07 34.0229 0 34.0229 0C34.0229 0 13.0332 5.09349e-07 7.78841 1.39932C4.90431 2.16841 2.62909 4.44364 1.84931 7.33841C0.449997 12.5725 0.449997 23.5 0.449997 23.5C0.449997 23.5 0.449997 34.4275 1.84931 39.6616C2.61841 42.5457 4.89363 44.8209 7.78841 45.6007C13.0332 47 34.0229 47 34.0229 47C34.0229 47 55.0234 47 60.2575 45.6007C63.1416 44.8316 65.4168 42.5564 66.1966 39.6616C67.5959 34.4275 67.5959 23.5 67.5959 23.5C67.5959 23.5 67.5959 12.5725 66.1966 7.33841Z" fill="#FF0000"/>
<path d="M27.3148 33.573L44.7582 23.5L27.3148 13.427V33.573Z" fill="white"/>
<path d="M85.431 20.4462C84.8473 20.0197 84.4283 19.3596 84.1836 18.4609C83.9388 17.5623 83.8117 16.3691 83.8117 14.8764V12.8454C83.8117 11.3375 83.9529 10.129 84.2353 9.21513C84.5178 8.30121 84.9602 7.63608 85.558 7.21974C86.1558 6.8034 86.9419 6.59015 87.9163 6.59015C88.8766 6.59015 89.6438 6.8034 90.2228 7.22989C90.8018 7.65639 91.2254 8.32152 91.4937 9.22528C91.762 10.129 91.8938 11.3375 91.8938 12.8403V14.8713C91.8938 16.364 91.762 17.5623 91.5031 18.466C91.2442 19.3698 90.8206 20.0349 90.2322 20.4513C89.6485 20.8676 88.853 21.0809 87.8504 21.0809C86.8243 21.0859 86.0146 20.8727 85.431 20.4462ZM88.7118 18.2528C88.8719 17.7958 88.9566 17.0495 88.9566 16.0188V11.6573C88.9566 10.652 88.8766 9.92088 88.7118 9.45376C88.5518 8.99173 88.2646 8.75817 87.8551 8.75817C87.4597 8.75817 87.182 8.99173 87.0172 9.45376C86.8572 9.9158 86.7725 10.652 86.7725 11.6573V16.0188C86.7725 17.0545 86.8478 17.8009 87.0031 18.2528C87.1585 18.7097 87.4409 18.9382 87.8504 18.9382C88.2646 18.9382 88.5471 18.7097 88.7118 18.2528Z" fill="#212121"/>
<path d="M130.37 14.9119V15.6176C130.37 16.5163 130.393 17.1865 130.445 17.6384C130.492 18.0852 130.596 18.4152 130.751 18.6183C130.906 18.8214 131.146 18.9281 131.471 18.9281C131.909 18.9281 132.21 18.7453 132.37 18.3797C132.53 18.0141 132.62 17.4049 132.634 16.5519L135.152 16.7093C135.166 16.8311 135.171 16.9987 135.171 17.2119C135.171 18.5066 134.841 19.4713 134.187 20.1111C133.533 20.7508 132.606 21.0707 131.405 21.0707C129.965 21.0707 128.958 20.5833 128.379 19.6084C127.8 18.6336 127.513 17.1307 127.513 15.0896V12.6474C127.513 10.5454 127.814 9.01711 128.412 8.04734C129.009 7.08264 130.036 6.6003 131.49 6.6003C132.493 6.6003 133.26 6.79831 133.797 7.19434C134.333 7.59038 134.71 8.20473 134.931 9.04249C135.147 9.88025 135.26 11.0379 135.26 12.5103V14.9068H130.37V14.9119ZM130.742 9.02218C130.596 9.2202 130.497 9.54515 130.445 9.99195C130.393 10.4388 130.37 11.1242 130.37 12.033V13.0384H132.507V12.033C132.507 11.1344 132.479 10.454 132.422 9.99195C132.366 9.52992 132.262 9.19989 132.116 9.01203C131.97 8.82417 131.739 8.7277 131.429 8.7277C131.118 8.72262 130.888 8.82417 130.742 9.02218Z" fill="#212121"/>
<path d="M78.3232 14.6479L75 1.70575H77.8996L79.0622 7.57006C79.3588 9.0171 79.5753 10.2458 79.7165 11.2664H79.8013C79.9001 10.5352 80.1166 9.31159 80.4555 7.59037L81.6606 1.70067H84.5601L81.1993 14.6479V20.8574H78.3232V14.6479Z" fill="#212121"/>
<path d="M101.322 6.86432V20.8524H99.0392L98.785 19.1413H98.7238C98.1025 20.436 97.1705 21.0808 95.9325 21.0808C95.0711 21.0808 94.4356 20.7762 94.0261 20.1669C93.6166 19.5576 93.4142 18.6082 93.4142 17.3135V6.86432H96.3326V17.1358C96.3326 17.7603 96.3938 18.2071 96.5209 18.4711C96.648 18.7351 96.8598 18.8722 97.1564 18.8722C97.4105 18.8722 97.6553 18.791 97.886 18.6234C98.1166 18.4559 98.2908 18.2426 98.4037 17.9837V6.86432H101.322Z" fill="#212121"/>
<path d="M116.3 6.86432V20.8524H114.017L113.763 19.1413H113.702C113.081 20.436 112.149 21.0808 110.911 21.0808C110.049 21.0808 109.414 20.7762 109.004 20.1669C108.595 19.5576 108.392 18.6082 108.392 17.3135V6.86432H111.311V17.1358C111.311 17.7603 111.372 18.2071 111.499 18.4711C111.626 18.7351 111.838 18.8722 112.134 18.8722C112.389 18.8722 112.633 18.791 112.864 18.6234C113.095 18.4559 113.269 18.2426 113.382 17.9837V6.86432H116.3Z" fill="#212121"/>
<path d="M109.258 4.23934H106.359V20.8524H103.502V4.23934H100.602V1.70575H109.254V4.23934H109.258Z" fill="#212121"/>
<path d="M125.964 9.10342C125.785 8.21997 125.503 7.58022 125.107 7.18419C124.712 6.78816 124.17 6.59014 123.479 6.59014C122.942 6.59014 122.443 6.75262 121.977 7.08264C121.511 7.40759 121.153 7.83917 120.899 8.37229H120.875V1H118.061V20.8574H120.471L120.767 19.5323H120.828C121.054 20.0045 121.393 20.3751 121.845 20.6493C122.297 20.9234 122.796 21.0605 123.347 21.0605C124.335 21.0605 125.06 20.568 125.526 19.5881C125.992 18.6082 126.223 17.0748 126.223 14.988V12.7743C126.227 11.2105 126.138 9.98688 125.964 9.10342ZM123.286 14.8103C123.286 15.8309 123.248 16.628 123.168 17.2068C123.093 17.7857 122.961 18.1969 122.777 18.4406C122.594 18.6843 122.349 18.8062 122.038 18.8062C121.798 18.8062 121.577 18.7453 121.37 18.6234C121.167 18.5016 120.998 18.3188 120.871 18.0751V10.129C120.97 9.74824 121.139 9.43853 121.379 9.19481C121.619 8.9511 121.878 8.82925 122.161 8.82925C122.457 8.82925 122.688 8.95618 122.848 9.20497C123.008 9.45376 123.121 9.88025 123.187 10.4692C123.248 11.0633 123.281 11.9061 123.281 13.0028V14.8103H123.286Z" fill="#212121"/>
<path d="M87.4316 35.2637C87.321 36.7936 86.7546 37.998 85.7324 38.877C84.7168 39.7559 83.3757 40.1953 81.709 40.1953C79.8861 40.1953 78.4505 39.5833 77.4023 38.3594C76.3607 37.1289 75.8398 35.4427 75.8398 33.3008V32.4316C75.8398 31.0645 76.0807 29.86 76.5625 28.8184C77.0443 27.7767 77.7311 26.9792 78.623 26.4258C79.5215 25.8659 80.5632 25.5859 81.748 25.5859C83.3887 25.5859 84.7103 26.0254 85.7129 26.9043C86.7155 27.7832 87.2949 29.0169 87.4512 30.6055H84.5215C84.4499 29.6875 84.1927 29.0234 83.75 28.6133C83.3138 28.1966 82.6465 27.9883 81.748 27.9883C80.7715 27.9883 80.0391 28.3398 79.5508 29.043C79.069 29.7396 78.8216 30.8236 78.8086 32.2949V33.3691C78.8086 34.9056 79.0397 36.0286 79.502 36.7383C79.9707 37.4479 80.7064 37.8027 81.709 37.8027C82.6139 37.8027 83.2878 37.5977 83.7305 37.1875C84.1797 36.7708 84.4368 36.1296 84.502 35.2637H87.4316ZM91.9484 40H89.1164V25H91.9484V40ZM93.643 34.6191C93.643 33.571 93.8448 32.6367 94.2484 31.8164C94.6521 30.9961 95.2315 30.3613 95.9867 29.9121C96.7484 29.4629 97.6306 29.2383 98.6332 29.2383C100.059 29.2383 101.221 29.6745 102.12 30.5469C103.024 31.4193 103.529 32.6042 103.633 34.1016L103.653 34.8242C103.653 36.4453 103.2 37.7474 102.295 38.7305C101.39 39.707 100.176 40.1953 98.6527 40.1953C97.1293 40.1953 95.9118 39.707 95.0004 38.7305C94.0954 37.7539 93.643 36.4258 93.643 34.7461V34.6191ZM96.4652 34.8242C96.4652 35.8268 96.654 36.5951 97.0316 37.1289C97.4092 37.6562 97.9496 37.9199 98.6527 37.9199C99.3363 37.9199 99.8702 37.6595 100.254 37.1387C100.638 36.6113 100.83 35.7715 100.83 34.6191C100.83 33.6361 100.638 32.8743 100.254 32.334C99.8702 31.7936 99.3298 31.5234 98.6332 31.5234C97.9431 31.5234 97.4092 31.7936 97.0316 32.334C96.654 32.8678 96.4652 33.6979 96.4652 34.8242ZM107.789 29.4336L107.877 30.6543C108.632 29.7103 109.644 29.2383 110.914 29.2383C112.033 29.2383 112.867 29.5671 113.414 30.2246C113.961 30.8822 114.24 31.8652 114.254 33.1738V40H111.431V33.2422C111.431 32.6432 111.301 32.2103 111.041 31.9434C110.78 31.6699 110.347 31.5332 109.742 31.5332C108.948 31.5332 108.352 31.8717 107.955 32.5488V40H105.132V29.4336H107.789ZM121.065 40.1953C119.516 40.1953 118.253 39.7201 117.276 38.7695C116.306 37.819 115.821 36.5527 115.821 34.9707V34.6973C115.821 33.6361 116.026 32.6888 116.436 31.8555C116.846 31.0156 117.426 30.3711 118.175 29.9219C118.93 29.4661 119.789 29.2383 120.753 29.2383C122.198 29.2383 123.334 29.694 124.161 30.6055C124.994 31.5169 125.411 32.8092 125.411 34.4824V35.6348H118.682C118.774 36.3249 119.047 36.8783 119.503 37.2949C119.965 37.7116 120.548 37.9199 121.251 37.9199C122.338 37.9199 123.188 37.526 123.8 36.7383L125.186 38.291C124.763 38.89 124.19 39.3587 123.468 39.6973C122.745 40.0293 121.944 40.1953 121.065 40.1953ZM120.743 31.5234C120.183 31.5234 119.727 31.7122 119.376 32.0898C119.031 32.4674 118.809 33.0078 118.712 33.7109H122.638V33.4863C122.624 32.8613 122.455 32.3796 122.13 32.041C121.804 31.696 121.342 31.5234 120.743 31.5234Z" fill="black"/>
</svg>
